<svg xmlns="http://www.w3.org/2000/svg" xmlns:xlink="http://www.w3.org/1999/xlink" version="1.1" id="Layer_1" x="0px" y="0px" viewBox="0 0 720.1 275.2" style="enable-background:new 0 0 720.1 275.2;" xml:space="preserve">
<style type="text/css">
	.st0{clip-path:url(#SVGID_2_);fill:#f7f7f7;}
	.st1{clip-path:url(#SVGID_4_);fill:#f4cf4b;}
	.st2{fill:#f7f7f7;}
    /* 
        gray = #50504F
        red = #F55449
        yellow = #f4cf4b
        blush = #f7f7f7
        white = #ffffff
        lightgray = #b1b1b1
    */
</style>
<g>
	<g>
		<g>
			<defs>
				<rect id="SVGID_1_" x="23.1" width="683" height="128.9"/>
			</defs>
			<clipPath id="SVGID_2_">
				<use xlink:href="#SVGID_1_" style="overflow:visible;"/>
			</clipPath>
			<path class="st0" d="M87.3,38.8H74.7v75.8h12.6V38.8z M55.4,116c9.1,0,13.8-1.4,16.3-2.6v-11.2c-2.2,1.1-6.4,2.5-10.8,2.5     c-18.4,0-25.1-16.4-25.2-32.6V5.6H23.1v68.5l0,0c0,0.1,0,0.2,0,0.3c0.1,16.5,4.6,28.3,12.6,35.1C40.9,113.8,47.6,116,55.4,116      M88.9,21c0-4.4-3.6-8-7.9-8c-4.4,0-7.9,3.6-7.9,8s3.6,8,7.9,8C85.4,28.9,88.9,25.4,88.9,21 M134,76.6c0,12.4-1.4,28.5-13,28.5     c-11.5,0-12.8-12.6-12.8-26v-1.2c0-14.1,4.1-28.7,13.9-28.7C131.7,49.3,134,65.4,134,76.6 M148.6,78.9c0-19.6-4.5-40.6-23.5-40.6     c-10.4,0-14.2,6.7-16.6,12h-0.3V5.6H94.9v78.2c0,32.6,19.8,32.7,28.8,32.7C138.9,116.5,148.6,101.1,148.6,78.9 M164.3,61.7     c0-4.3,3.5-13,13.4-13c10.2,0,12.5,9.2,12.5,13H164.3z M164.3,71.6h39.1c0-10.9-1.8-34.5-24.4-34.5c-17.7,0-27.7,11.2-27.7,37     c0,27.2,12.1,42,32.3,42c9.1,0,15.2-1.9,17.7-3v-10.9c-2.2,1.1-6,2.8-11.5,2.8C171.1,105,164.3,87.9,164.3,71.6 M207.6,114.6     h12.6V5.6h-12.6V114.6z M228.8,114.6h12.6V5.6h-12.6V114.6z M285.9,61.7H260c0-4.3,3.5-13,13.4-13     C283.6,48.8,285.9,58,285.9,61.7 M299.1,71.6c0-10.9-1.9-34.5-24.4-34.5c-17.7,0-27.7,11.2-27.7,37c0,27.2,12.1,42,32.3,42     c9.1,0,15.2-1.9,17.7-3v-10.9c-2.2,1.1-6,2.8-11.5,2.8c-18.6,0-25.5-17.1-25.5-33.4H299.1z"/>
		</g>
	</g>
	<g>
		<g>
			<defs>
				<rect id="SVGID_3_" x="23.1" width="683" height="128.9"/>
			</defs>
			<clipPath id="SVGID_4_">
				<use xlink:href="#SVGID_3_" style="overflow:visible;"/>
			</clipPath>
			<path class="st1" d="M544.8,81.7c-5.3,0-8-2.3-8.4-4.9c1.6-11.1,15.1-27.5,24.6-27.5C567.3,49.3,560.1,81.7,544.8,81.7      M476.6,81.7c-5.3,0-8-2.3-8.4-4.9c1.6-11.1,15.1-27,24.7-27C499.2,49.7,491.9,81.7,476.6,81.7 M368.8,71.5     c3.2-25.2,17-63.2,25.2-63.2c8.6,0-2.4,67.7-25.8,83.8C367.7,85.6,367.9,78.4,368.8,71.5 M432.8,55.1c8.9,0,4.6,29.7-9.8,29.7     c-2.7,0-4.8-0.5-6.3-1.1C418.3,69.3,424.6,55.1,432.8,55.1 M617.4,55.1c11.5,0,5.4,29.7-11.4,29.7c-3,0-5.2-0.6-6.7-1.3     C600.8,69.4,607.7,55.1,617.4,55.1 M400.8,94.6c0.5,2.6,1.1,5.2,2,7.6c3.7,10.1,11.3,17.4,23.5,17.4c17.5,0,24.8-20.4,26.5-28.6     v26.2c0,1.6,3.3,6.7,11,6.7c3.2,0,4.4-1.2,4.4-4.7c0-2.4-0.2-20.9-0.2-34.2c0,0,7.2,32.5,31.4,32.5c8.6,0,16.8-10.5,21-30.1     c-0.1,10-0.1,22.3-0.1,23.4c0,1.6,3.3,6.7,11,6.7c3.2,0,4.4-1.2,4.4-4.7c0-2.4-0.2-15.7-0.2-29.2c0,0,16.1,39.5,33.7,39.5     c13.3,0,15.8-23.6,15.8-23.6v-0.1c3.4,11,11.2,19.3,24.3,19.3c27.4,0,35.6-45.9,38-65.9c5.5,1.4,12.9,1.1,12.9,1.1     s-9,16.7-11.3,31.3c-4.7,29.6,12.5,43.4,28.9,43.4c19.2,0,28.3-17.9,28.3-31.2c0-4.5-1.2-8.1-3.2-10.5     c-3.3-3.2-14.5-0.2-13.6,3.4c4.5,10.4,2.1,32.9-10.7,32.9c-8.9,0-14.5-10.5-14.5-22.9c0-22.9,9-30.8,15.7-46.8     c3-7.1-10.7-11.5-13.2-9c0,0-1.9,2.6-9.2,2.6c-10.2,0-12.1-11.2-11.9-20.4c0.2-7.5,2.5-13.2-2.9-13.2c-9.4,0-15.4,12.7-15.4,18.3     c0,3.9,3.1,12.9,12.7,18.2c2.1,28.4-11.5,61.1-27.7,61.1c-9.4,0-13.2-10.3-13.1-22c1.3,0.7,3.4,1.3,6.5,1.3     c27.4,0,35.4-44.8,4.4-44.8c-16.1,0-26.1,19-26.8,37.6c0,0-2.7,27.2-12,27.2c-7.6-0.1-14.9-21.6-14.9-21.6s1.2-0.2,2-0.5     c20.9-5.8,28.2-44.8,3-44.8c-14.1,0-25.5,23.6-25.5,23.6c0-0.8,0-0.4,0.1-1.2c0.7-20.4,3.7-37.2,6.9-49.6c0,0,1.6-4.3-6.3-6     c-7.9-1.7-12.5,1.1-12.8,5.2c-1.4,17.1-2.3,35.8-2.7,48.3c-1.9,26.7-13.9,43.5-20.2,43.5c-9.9,0-13.9-18.2-13.9-18.2     c24.4-1.7,35.3-43.5,6.8-43.5c-16.3,0-25.2,21.4-25.2,21.4c0-0.6,0-1.1,0.1-1.7c0.7-20.4,4.9-43.1,8.1-55.5c0,0,1.6-4.3-6.3-6     c-7.9-1.7-10.6,0.8-11.4,4.8c-2.9,13.6-4.3,32.6-5.1,47.5l0,0c-1.1,25.5-9.2,57.1-24.4,57.1c-9.6,0-13.2-11.3-12.8-23.8     c1.3,0.6,3.3,1.1,6.2,1.1c23.7,0.1,32-44.8,2.4-44.8c-13.4,0-22.4,15.8-24.5,32.8c0,0-8.5,41-19.9,41c-6.2,0-10.1-8.7-11.7-20.5     c22.9-13.7,38.5-63.9,34.4-86.7c-1.4-8.1-9.1-11.8-17.9-11.8c-21.3,0-37.9,56.9-33.5,95.1C335.8,92.8,329,79.1,329,67.8     c0-12.7,9.2-15.4,9.2-15.4s-0.5-6.6-9.1-6.6c0,0-16.9,0.1-16.9,21.9c0,19.3,16,33.1,41,34.7c3.1,15.9,10.5,27.1,23.7,27.1     C393.4,129,400.8,94.6,400.8,94.6"/>
		</g>
	</g>
</g>
<g>
	<path class="st2" d="M348.2,132.4c-3.9-0.4-8.9,5.8-10,7.3c6.2,3.1,12.1,2.3,13,0.8C352.6,138.4,350.4,132.6,348.2,132.4    M348.2,140.1c-0.7,1-5.1,1.6-9.6-0.5c0.8-1,4.6-5.3,7.4-5.1C347.6,134.7,349.2,138.7,348.2,140.1z"/>
	<path class="st2" d="M325.2,140.6c1,1.5,6.9,2.3,13-0.8c-1.1-1.5-6.1-7.7-10-7.3C326,132.6,323.8,138.4,325.2,140.6 M330.4,134.6   c2.8-0.2,6.6,4.1,7.4,5.1c-4.5,2.1-8.8,1.5-9.6,0.5C327.2,138.7,328.8,134.7,330.4,134.6z"/>
	<path class="st2" d="M352.7,145.6c-8.4,0.8-14.5-5.9-14.5-5.9c2.5,6.5,11.2,10,11.2,10C349,146,352.7,145.6,352.7,145.6"/>
	<path class="st2" d="M323.7,145.6c8.4,0.8,14.5-5.9,14.5-5.9c-2.5,6.5-11.2,10-11.2,10C327.4,146,323.7,145.6,323.7,145.6"/>
	<path class="st2" d="M339,139.7c0,0.3-0.2,0.5-0.5,0.5h-0.6c-0.3,0-0.5-0.2-0.5-0.5s0.3-0.6,0.6-0.6h0.4   C338.7,139.1,339,139.4,339,139.7"/>
	<path class="st2" d="M337.6,153.6c-0.4,0-0.7,0.3-0.7,0.7c0,0.4,0.3,0.7,0.7,0.7s0.7-0.3,0.7-0.7   C338.2,153.9,337.9,153.6,337.6,153.6"/>
	<path class="st2" d="M337.6,151.9c-0.4,0-0.7,0.3-0.7,0.7c0,0.4,0.3,0.7,0.7,0.7s0.7-0.3,0.7-0.7   C338.2,152.2,337.9,151.9,337.6,151.9"/>
	<path class="st2" d="M337.6,150.2c-0.4,0-0.7,0.3-0.7,0.7c0,0.4,0.3,0.7,0.7,0.7s0.7-0.3,0.7-0.7   C338.2,150.5,337.9,150.2,337.6,150.2"/>
	<path class="st2" d="M337.6,148.5c-0.4,0-0.7,0.3-0.7,0.7c0,0.4,0.3,0.7,0.7,0.7s0.7-0.3,0.7-0.7   C338.2,148.8,337.9,148.5,337.6,148.5"/>
	<path class="st2" d="M337.6,146.8c-0.4,0-0.7,0.3-0.7,0.7c0,0.4,0.3,0.7,0.7,0.7s0.7-0.3,0.7-0.7   C338.2,147.1,337.9,146.8,337.6,146.8"/>
	<path class="st2" d="M337.6,145.1c-0.4,0-0.7,0.3-0.7,0.7c0,0.4,0.3,0.7,0.7,0.7s0.7-0.3,0.7-0.7   C338.2,145.4,337.9,145.1,337.6,145.1"/>
	<path class="st2" d="M337.6,143.4c-0.4,0-0.7,0.3-0.7,0.7c0,0.4,0.3,0.7,0.7,0.7s0.7-0.3,0.7-0.7   C338.2,143.7,337.9,143.4,337.6,143.4"/>
	<path class="st2" d="M337.6,141.7c-0.4,0-0.7,0.3-0.7,0.7c0,0.4,0.3,0.7,0.7,0.7s0.7-0.3,0.7-0.7   C338.2,142,337.9,141.7,337.6,141.7"/>
	<path class="st2" d="M337.6,140.1c-0.4,0-0.7,0.3-0.7,0.7c0,0.4,0.3,0.7,0.7,0.7s0.7-0.3,0.7-0.7   C338.2,140.4,337.9,140.1,337.6,140.1"/>
	<path class="st2" d="M337.6,138.4c-0.4,0-0.7,0.3-0.7,0.7c0,0.4,0.3,0.7,0.7,0.7s0.7-0.3,0.7-0.7   C338.2,138.7,337.9,138.4,337.6,138.4"/>
	<path class="st2" d="M337.6,136.7c-0.4,0-0.7,0.3-0.7,0.7c0,0.4,0.3,0.7,0.7,0.7s0.7-0.3,0.7-0.7   C338.2,137,337.9,136.7,337.6,136.7"/>
	<path class="st2" d="M337.6,135c-0.4,0-0.7,0.3-0.7,0.7c0,0.4,0.3,0.7,0.7,0.7s0.7-0.3,0.7-0.7C338.2,135.3,337.9,135,337.6,135"/>
	<path class="st2" d="M337.6,133.3c-0.4,0-0.7,0.3-0.7,0.7c0,0.4,0.3,0.7,0.7,0.7s0.7-0.3,0.7-0.7   C338.2,133.6,337.9,133.3,337.6,133.3"/>
	<path class="st2" d="M337.6,131.6c-0.4,0-0.7,0.3-0.7,0.7c0,0.4,0.3,0.7,0.7,0.7s0.7-0.3,0.7-0.7   C338.2,131.9,337.9,131.6,337.6,131.6"/>
	<path class="st2" d="M337.6,129.9c-0.4,0-0.7,0.3-0.7,0.7c0,0.4,0.3,0.7,0.7,0.7s0.7-0.3,0.7-0.7   C338.2,130.2,337.9,129.9,337.6,129.9"/>
	<path class="st2" d="M337.6,128.3c-0.4,0-0.7,0.3-0.7,0.7s0.3,0.7,0.7,0.7s0.7-0.3,0.7-0.7S337.9,128.3,337.6,128.3"/>
	<path class="st2" d="M337.6,126.6c-0.4,0-0.7,0.3-0.7,0.7c0,0.4,0.3,0.7,0.7,0.7s0.7-0.3,0.7-0.7   C338.2,126.9,337.9,126.6,337.6,126.6"/>
	<path class="st2" d="M337.6,124.9c-0.4,0-0.7,0.3-0.7,0.7c0,0.4,0.3,0.7,0.7,0.7s0.7-0.3,0.7-0.7   C338.2,125.2,337.9,124.9,337.6,124.9"/>
	<path class="st2" d="M337.6,123.2c-0.4,0-0.7,0.3-0.7,0.7c0,0.4,0.3,0.7,0.7,0.7s0.7-0.3,0.7-0.7   C338.2,123.5,337.9,123.2,337.6,123.2"/>
	<path class="st2" d="M337.6,121.5c-0.4,0-0.7,0.3-0.7,0.7c0,0.4,0.3,0.7,0.7,0.7s0.7-0.3,0.7-0.7   C338.2,121.8,337.9,121.5,337.6,121.5"/>
	<path class="st2" d="M337.6,119.8c-0.4,0-0.7,0.3-0.7,0.7c0,0.4,0.3,0.7,0.7,0.7s0.7-0.3,0.7-0.7   C338.2,120.1,337.9,119.8,337.6,119.8"/>
	<path class="st2" d="M337.6,118.1c-0.4,0-0.7,0.3-0.7,0.7c0,0.4,0.3,0.7,0.7,0.7s0.7-0.3,0.7-0.7   C338.2,118.4,337.9,118.1,337.6,118.1"/>
	<path class="st2" d="M337.6,116.4c-0.4,0-0.7,0.3-0.7,0.7c0,0.4,0.3,0.7,0.7,0.7s0.7-0.3,0.7-0.7   C338.2,116.7,337.9,116.4,337.6,116.4"/>
	<path class="st2" d="M337.6,114.8c-0.4,0-0.7,0.3-0.7,0.7c0,0.4,0.3,0.7,0.7,0.7s0.7-0.3,0.7-0.7   C338.2,115.1,337.9,114.8,337.6,114.8"/>
	<path class="st2" d="M337.6,113.1c-0.4,0-0.7,0.3-0.7,0.7c0,0.4,0.3,0.7,0.7,0.7s0.7-0.3,0.7-0.7   C338.2,113.4,337.9,113.1,337.6,113.1"/>
	<path class="st2" d="M337.6,111.4c-0.4,0-0.7,0.3-0.7,0.7c0,0.4,0.3,0.7,0.7,0.7s0.7-0.3,0.7-0.7   C338.2,111.7,337.9,111.4,337.6,111.4"/>
	<path class="st2" d="M337.6,109.7c-0.4,0-0.7,0.3-0.7,0.7c0,0.4,0.3,0.7,0.7,0.7s0.7-0.3,0.7-0.7   C338.2,110,337.9,109.7,337.6,109.7"/>
	<path class="st2" d="M337.6,108c-0.4,0-0.7,0.3-0.7,0.7c0,0.4,0.3,0.7,0.7,0.7s0.7-0.3,0.7-0.7C338.2,108.3,337.9,108,337.6,108"/>
	<path class="st2" d="M337.6,106.3c-0.4,0-0.7,0.3-0.7,0.7c0,0.4,0.3,0.7,0.7,0.7s0.7-0.3,0.7-0.7   C338.2,106.6,337.9,106.3,337.6,106.3"/>
	<path class="st2" d="M337.6,104.6c-0.4,0-0.7,0.3-0.7,0.7c0,0.4,0.3,0.7,0.7,0.7s0.7-0.3,0.7-0.7   C338.2,104.9,337.9,104.6,337.6,104.6"/>
	<path class="st2" d="M337.6,102.9c-0.4,0-0.7,0.3-0.7,0.7c0,0.4,0.3,0.7,0.7,0.7s0.7-0.3,0.7-0.7   C338.2,103.2,337.9,102.9,337.6,102.9"/>
	<path class="st2" d="M337.6,101.3c-0.4,0-0.7,0.3-0.7,0.7c0,0.4,0.3,0.7,0.7,0.7s0.7-0.3,0.7-0.7   C338.2,101.6,337.9,101.3,337.6,101.3"/>
	<path class="st2" d="M337.6,99.6c-0.4,0-0.7,0.3-0.7,0.7c0,0.4,0.3,0.7,0.7,0.7s0.7-0.3,0.7-0.7C338.2,99.9,337.9,99.6,337.6,99.6"/>
	<path class="st2" d="M337.6,97.9c-0.4,0-0.7,0.3-0.7,0.7c0,0.4,0.3,0.7,0.7,0.7s0.7-0.3,0.7-0.7C338.2,98.2,337.9,97.9,337.6,97.9"/>
	<path class="st2" d="M337.6,96.2c-0.4,0-0.7,0.3-0.7,0.7c0,0.4,0.3,0.7,0.7,0.7s0.7-0.3,0.7-0.7C338.2,96.5,337.9,96.2,337.6,96.2"/>
	<path class="st2" d="M337.6,94.5c-0.4,0-0.7,0.3-0.7,0.7c0,0.4,0.3,0.7,0.7,0.7s0.7-0.3,0.7-0.7C338.2,94.8,337.9,94.5,337.6,94.5"/>
	<path class="st2" d="M337.6,92.8c-0.4,0-0.7,0.3-0.7,0.7c0,0.4,0.3,0.7,0.7,0.7s0.7-0.3,0.7-0.7C338.2,93.1,337.9,92.8,337.6,92.8"/>
	<path class="st2" d="M337.6,91.1c-0.4,0-0.7,0.3-0.7,0.7c0,0.4,0.3,0.7,0.7,0.7s0.7-0.3,0.7-0.7C338.2,91.4,337.9,91.1,337.6,91.1"/>
	<path class="st2" d="M337.6,89.4c-0.4,0-0.7,0.3-0.7,0.7c0,0.4,0.3,0.7,0.7,0.7s0.7-0.3,0.7-0.7C338.2,89.7,337.9,89.4,337.6,89.4"/>
	<path class="st2" d="M337.6,87.8c-0.4,0-0.7,0.3-0.7,0.7c0,0.4,0.3,0.7,0.7,0.7s0.7-0.3,0.7-0.7C338.2,88.1,337.9,87.8,337.6,87.8"/>
	<path class="st2" d="M337.6,86.1c-0.4,0-0.7,0.3-0.7,0.7c0,0.4,0.3,0.7,0.7,0.7s0.7-0.3,0.7-0.7C338.2,86.4,337.9,86.1,337.6,86.1"/>
	<path class="st2" d="M337.6,84.4c-0.4,0-0.7,0.3-0.7,0.7c0,0.4,0.3,0.7,0.7,0.7s0.7-0.3,0.7-0.7C338.2,84.7,337.9,84.4,337.6,84.4"/>
	<path class="st2" d="M337.6,82.7c-0.4,0-0.7,0.3-0.7,0.7c0,0.4,0.3,0.7,0.7,0.7s0.7-0.3,0.7-0.7C338.2,83,337.9,82.7,337.6,82.7"/>
	<path class="st2" d="M337.6,81c-0.4,0-0.7,0.3-0.7,0.7c0,0.4,0.3,0.7,0.7,0.7s0.7-0.3,0.7-0.7C338.2,81.3,337.9,81,337.6,81"/>
	<path class="st2" d="M337.6,79.3c-0.4,0-0.7,0.3-0.7,0.7c0,0.4,0.3,0.7,0.7,0.7s0.7-0.3,0.7-0.7C338.2,79.6,337.9,79.3,337.6,79.3"/>
	<path class="st2" d="M337.6,77.6c-0.4,0-0.7,0.3-0.7,0.7c0,0.4,0.3,0.7,0.7,0.7s0.7-0.3,0.7-0.7C338.2,77.9,337.9,77.6,337.6,77.6"/>
	<path class="st2" d="M337.6,75.9c-0.4,0-0.7,0.3-0.7,0.7c0,0.4,0.3,0.7,0.7,0.7s0.7-0.3,0.7-0.7C338.2,76.2,337.9,75.9,337.6,75.9"/>
	<path class="st2" d="M337.6,74.3c-0.4,0-0.7,0.3-0.7,0.7c0,0.4,0.3,0.7,0.7,0.7s0.7-0.3,0.7-0.7C338.2,74.6,337.9,74.3,337.6,74.3"/>
	<path class="st2" d="M337.6,72.6c-0.4,0-0.7,0.3-0.7,0.7c0,0.4,0.3,0.7,0.7,0.7s0.7-0.3,0.7-0.7C338.2,72.9,337.9,72.6,337.6,72.6"/>
	<path class="st2" d="M337.6,70.9c-0.4,0-0.7,0.3-0.7,0.7c0,0.4,0.3,0.7,0.7,0.7s0.7-0.3,0.7-0.7C338.2,71.2,337.9,70.9,337.6,70.9"/>
	<path class="st2" d="M337.6,69.2c-0.4,0-0.7,0.3-0.7,0.7c0,0.4,0.3,0.7,0.7,0.7s0.7-0.3,0.7-0.7C338.2,69.5,337.9,69.2,337.6,69.2"/>
	<path class="st2" d="M337.6,67.5c-0.4,0-0.7,0.3-0.7,0.7c0,0.4,0.3,0.7,0.7,0.7s0.7-0.3,0.7-0.7C338.2,67.8,337.9,67.5,337.6,67.5"/>
	<path class="st2" d="M337.6,65.8c-0.4,0-0.7,0.3-0.7,0.7c0,0.4,0.3,0.7,0.7,0.7s0.7-0.3,0.7-0.7C338.2,66.1,337.9,65.8,337.6,65.8"/>
	<path class="st2" d="M337.6,64.1c-0.4,0-0.7,0.3-0.7,0.7c0,0.4,0.3,0.7,0.7,0.7s0.7-0.3,0.7-0.7C338.2,64.4,337.9,64.1,337.6,64.1"/>
	<path class="st2" d="M337.6,62.4c-0.4,0-0.7,0.3-0.7,0.7c0,0.4,0.3,0.7,0.7,0.7s0.7-0.3,0.7-0.7C338.2,62.7,337.9,62.4,337.6,62.4"/>
	<path class="st2" d="M337.6,60.8c-0.4,0-0.7,0.3-0.7,0.7c0,0.4,0.3,0.7,0.7,0.7s0.7-0.3,0.7-0.7C338.2,61.1,337.9,60.8,337.6,60.8"/>
	<path class="st2" d="M337.6,59.1c-0.4,0-0.7,0.3-0.7,0.7c0,0.4,0.3,0.7,0.7,0.7s0.7-0.3,0.7-0.7C338.2,59.4,337.9,59.1,337.6,59.1"/>
	<path class="st2" d="M337.6,57.4c-0.4,0-0.7,0.3-0.7,0.7c0,0.4,0.3,0.7,0.7,0.7s0.7-0.3,0.7-0.7C338.2,57.7,337.9,57.4,337.6,57.4"/>
	<path class="st2" d="M337.6,55.7c-0.4,0-0.7,0.3-0.7,0.7s0.3,0.7,0.7,0.7s0.7-0.3,0.7-0.7C338.2,56,337.9,55.7,337.6,55.7"/>
	<path class="st2" d="M337.6,54c-0.4,0-0.7,0.3-0.7,0.7s0.3,0.7,0.7,0.7s0.7-0.3,0.7-0.7C338.2,54.3,337.9,54,337.6,54"/>
	<path class="st2" d="M337.6,52.3c-0.4,0-0.7,0.3-0.7,0.7s0.3,0.7,0.7,0.7s0.7-0.3,0.7-0.7C338.2,52.6,337.9,52.3,337.6,52.3"/>
	<path class="st2" d="M369.5,194.9c-0.3-0.2-0.6-0.5-0.7-0.9s0-0.8,0.2-1.1l2.9-4.8l-4.3-2.6l-17.5,4.8c4.4-3.5,7.2-8.9,7.2-15   c0-10.6-8.6-19.2-19.2-19.2s-19.2,8.6-19.2,19.2c0,6.1,2.8,11.4,7.2,15l-17.5-4.8l-4.3,2.6l2.9,4.8c0.2,0.3,0.3,0.7,0.2,1.1   c-0.1,0.4-0.3,0.7-0.7,0.9l-4.8,2.9l2.6,4.3l15.9,4.3v22.2l-16.2,19.3l0.6,5.2l6.1-0.7c0.4,0,0.8,0.1,1.1,0.3   c0.3,0.2,0.5,0.6,0.5,1l0.7,6.1l5.5-0.6l19.3-23l19.3,23l5.5,0.6l0.7-6.1c0-0.4,0.2-0.8,0.5-1s0.7-0.4,1.1-0.3l6.1,0.7l0.6-5.2   l-16.2-19.3v-22.2l15.9-4.3l2.6-4.3L369.5,194.9 M344.3,167c1.6,0,3,1.3,3,3c0,1.6-1.3,3-3,3c-1.6,0-3-1.3-3-3   C341.3,168.3,342.6,167,344.3,167z M332.1,167c1.6,0,3,1.3,3,3c0,1.6-1.3,3-3,3c-1.6,0-3-1.3-3-3C329.1,168.3,330.5,167,332.1,167z    M338.2,228.4c-1.5,0-2.8-1.3-2.8-2.8s1.3-2.8,2.8-2.8s2.8,1.3,2.8,2.8C341,227.1,339.7,228.4,338.2,228.4z M338.2,215   c-1.5,0-2.8-1.3-2.8-2.8s1.3-2.8,2.8-2.8s2.8,1.3,2.8,2.8S339.7,215,338.2,215z M338.2,201.6c-1.5,0-2.8-1.3-2.8-2.8   s1.3-2.8,2.8-2.8s2.8,1.3,2.8,2.8C341,200.4,339.7,201.6,338.2,201.6z M348.8,179.7c-2.6,3-6.4,4.7-10.4,4.7   c-4.2,0-8.2-1.9-10.8-5.2c-0.7-0.9-0.6-2.1,0.3-2.8c0.9-0.7,2.1-0.6,2.8,0.3c1.9,2.3,4.7,3.7,7.7,3.7c2.8,0,5.6-1.2,7.4-3.3   c0.7-0.8,2-0.9,2.8-0.2C349.4,177.7,349.5,178.9,348.8,179.7z"/>
	<path class="st2" d="M375.4,187.1c0.1,0.4,0,0.8-0.2,1.1l-2.9,4.8l4.8,2.9c0.3,0.2,0.6,0.5,0.7,0.9s0,0.8-0.2,1.1l-1.7,2.8l4.7-1.3   c3.3-0.9,5.3-4.4,4.4-7.7l-1.2-4.4c-0.9-3.3-4.4-5.3-7.7-4.4l-4.5,1.2l3.1,1.9C375.1,186.4,375.3,186.7,375.4,187.1"/>
	<path class="st2" d="M373.7,255.9c-0.3,0.2-0.7,0.4-1.1,0.3l-6.1-0.7l-0.7,6.1c0,0.4-0.2,0.8-0.5,1s-0.7,0.4-1.1,0.3l-3.9-0.4   l3.5,4.1c1.2,1.4,2.8,2.2,4.6,2.4c1.8,0.2,3.6-0.4,4.9-1.6l3.8-3.2c2.9-2.4,3.2-6.7,0.8-9.5l-3.2-3.8l-0.4,3.8   C374.3,255.3,374.1,255.7,373.7,255.9"/>
	<path class="st2" d="M298.6,197c0.1-0.4,0.3-0.7,0.7-0.9l4.8-2.9l-2.9-4.8c-0.2-0.3-0.3-0.7-0.2-1.1c0.1-0.4,0.3-0.7,0.7-0.9   l3.1-1.9l-4.5-1.2c-3.3-0.9-6.8,1.1-7.7,4.4l-1.2,4.4c-0.9,3.3,1.1,6.8,4.4,7.7l4.7,1.3l-1.7-2.8   C298.5,197.8,298.5,197.3,298.6,197"/>
	<path class="st2" d="M311.1,262.7c-0.3-0.2-0.5-0.6-0.5-1l-0.7-6.1l-6.1,0.7c-0.4,0-0.8-0.1-1.1-0.3c-0.3-0.2-0.5-0.6-0.5-1   l-0.4-3.8l-3.2,3.8c-2.4,2.9-2,7.1,0.8,9.5l3.8,3.2c1.4,1.2,3.1,1.7,4.9,1.6c1.8-0.2,3.4-1,4.6-2.4l3.5-4.1l-3.9,0.4   C311.8,263.1,311.4,263,311.1,262.7"/>
</g>
</svg>