<?xml version="1.0" encoding="UTF-8"?>
<svg width="32px" height="32px" viewBox="0 0 32 32" version="1.1" xmlns="http://www.w3.org/2000/svg" xmlns:xlink="http://www.w3.org/1999/xlink">
    <!-- Generator: Sketch 49.3 (51167) - http://www.bohemiancoding.com/sketch -->
    <title>Fill 183</title>
    <desc>Created with Sketch.</desc>
    <defs></defs>
    <g id="Desktop---Mobile" stroke="none" stroke-width="1" fill="none" fill-rule="evenodd">
        <g id="1-Recept---overlay---desktop" transform="translate(-950.000000, -1106.000000)" fill="#A0D1E6">
            <path d="M970.155,1116.656 L968.649,1116.657 C967.468,1116.657 967.239,1117.218 967.239,1118.041 L967.239,1119.857 L970.056,1119.857 L969.689,1122.702 L967.239,1122.702 L967.239,1130 L964.302,1130 L964.302,1122.702 L961.846,1122.702 L961.846,1119.857 L964.302,1119.857 L964.302,1117.76 C964.302,1115.325 965.789,1114 967.96,1114 C969,1114 969.894,1114.077 970.155,1114.112 L970.155,1116.656 Z M966,1106 C957.164,1106 950,1113.163 950,1122 C950,1130.836 957.164,1138 966,1138 C974.837,1138 982,1130.836 982,1122 C982,1113.163 974.837,1106 966,1106 L966,1106 Z" id="Fill-183"></path>
        </g>
    </g>
</svg>