<?xml version="1.0" encoding="UTF-8"?>
<svg width="32px" height="32px" viewBox="0 0 32 32" version="1.1" xmlns="http://www.w3.org/2000/svg" xmlns:xlink="http://www.w3.org/1999/xlink">
    <!-- Generator: Sketch 49.3 (51167) - http://www.bohemiancoding.com/sketch -->
    <title>Fill 183</title>
    <desc>Created with Sketch.</desc>
    <defs></defs>
    <g id="Desktop---Mobile" stroke="none" stroke-width="1" fill="none" fill-rule="evenodd">
        <g id="Profile---desktop" transform="translate(-950.000000, -1103.000000)" fill="#FFFFFF">
            <path d="M970.155,1113.656 L968.649,1113.657 C967.468,1113.657 967.239,1114.218 967.239,1115.041 L967.239,1116.857 L970.056,1116.857 L969.689,1119.702 L967.239,1119.702 L967.239,1127 L964.302,1127 L964.302,1119.702 L961.846,1119.702 L961.846,1116.857 L964.302,1116.857 L964.302,1114.76 C964.302,1112.325 965.789,1111 967.96,1111 C969,1111 969.894,1111.077 970.155,1111.112 L970.155,1113.656 Z M966,1103 C957.164,1103 950,1110.163 950,1119 C950,1127.836 957.164,1135 966,1135 C974.837,1135 982,1127.836 982,1119 C982,1110.163 974.837,1103 966,1103 L966,1103 Z" id="Fill-183"></path>
        </g>
    </g>
</svg>