<?xml version="1.0" encoding="UTF-8"?>
<svg width="18px" height="18px" viewBox="0 0 18 18" version="1.1" xmlns="http://www.w3.org/2000/svg" xmlns:xlink="http://www.w3.org/1999/xlink">
    <!-- Generator: Sketch 49.3 (51167) - http://www.bohemiancoding.com/sketch -->
    <title>Search</title>
    <desc>Created with Sketch.</desc>
    <defs></defs>
    <g id="Desktop---Mobile" stroke="none" stroke-width="1" fill="none" fill-rule="evenodd">
        <g id="Alle-Producten---Mobile" transform="translate(-230.000000, -387.000000)" fill="#F4BF73">
            <g id="Glyphs/Search" transform="translate(230.000000, 387.000000)">
                <path d="M17.6698575,16.16743 L12.7416688,11.2371186 C13.6250537,10.0322218 14.0982795,8.57553027 14.0916814,7.08148774 C14.0748259,3.18154103 10.9205944,0.0225968081 7.02082988,7.16406921e-05 C5.15457272,-0.00837242988 3.3624519,0.729951327 2.04370126,2.05056526 C0.724950625,3.37117919 -0.0108835809,5.16438227 0.000121694272,7.03069956 C0.0169771934,10.9310013 3.17149647,14.0902334 7.07161607,14.1127586 C8.57168599,14.1192603 10.033642,13.640492 11.2392977,12.7479064 L11.2444406,12.7440491 L16.1681293,17.6705031 C16.4343374,17.9497912 16.8310057,18.0628405 17.2044438,17.9658496 C17.5778819,17.8688587 17.8694117,17.5770678 17.9660791,17.2035322 C18.0627466,16.8299965 17.9493623,16.4334095 17.6698575,16.16743 L17.6698575,16.16743 Z M7.06647316,12.7009755 C3.94654792,12.6830274 1.42297354,10.1559123 1.40927766,7.03584267 C1.40085692,5.5429822 1.98957271,4.10870785 3.04437459,3.05229474 C4.09917647,1.99588162 5.53251736,1.40501055 7.02532992,1.41121175 C10.1452552,1.4291599 12.6688295,3.95627501 12.6825254,7.07634464 C12.6909462,8.5692051 12.1022304,10.0034795 11.0474285,11.0598926 C9.99262661,12.1163057 8.55928572,12.7071768 7.06647316,12.7009755 Z" id="Search"></path>
            </g>
        </g>
    </g>
</svg>