<?xml version="1.0" encoding="utf-8"?>
<!-- Generator: Adobe Illustrator 22.1.0, SVG Export Plug-In . SVG Version: 6.00 Build 0)  -->
<svg version="1.1" id="Layer_1" xmlns="http://www.w3.org/2000/svg" xmlns:xlink="http://www.w3.org/1999/xlink" x="0px" y="0px"
	 viewBox="0 0 240.6 239.9" style="enable-background:new 0 0 240.6 239.9;" xml:space="preserve">
<style type="text/css">
	.st0{display:none;fill:#F4BF73;}
	.st1{fill:#FFFFFF;}
	.st2{fill:none;stroke:#FFFFFF;stroke-width:5;stroke-miterlimit:10;}
	.st3{fill:#0E6184;}
</style>
<path class="st0" d="M230,240.1H10c-5.5,0-10-4.5-10-10v-220c0-5.5,4.5-10,10-10h220c5.5,0,10,4.5,10,10v220
	C240,235.6,235.5,240.1,230,240.1z"/>
<g>
	<polygon class="st1" points="212.7,65 58.5,63.5 78,138.9 191.7,140 	"/>
	<g>
		<path class="st1" d="M212.7,62.5c-45-0.5-90.1-0.9-135.1-1.4C71.2,61.1,64.9,61,58.5,61c-1.6,0-2.8,1.6-2.4,3.2
			c6.5,25.1,13,50.3,19.5,75.4c0.3,1.1,1.3,1.8,2.4,1.8c33.1,0.3,66.2,0.7,99.3,1c4.8,0,9.6,0.1,14.3,0.1c1.1,0,2.1-0.8,2.4-1.8
			c7-25,14-50,21-75c0.9-3.1-4-4.4-4.8-1.3c-7,25-14,50-21,75c0.8-0.6,1.6-1.2,2.4-1.8c-33.1-0.3-66.2-0.7-99.3-1
			c-4.8,0-9.6-0.1-14.3-0.1c0.8,0.6,1.6,1.2,2.4,1.8c-6.5-25.1-13-50.3-19.5-75.4c-0.8,1.1-1.6,2.1-2.4,3.2
			c45,0.5,90.1,0.9,135.1,1.4c6.4,0.1,12.7,0.1,19.1,0.2C215.9,67.6,215.9,62.6,212.7,62.5z"/>
	</g>
</g>
<g>
	<g>
		<path class="st1" d="M74,133.5c1.9,7.8,3.8,15.7,5.8,23.5c0.3,1.1,1.3,1.8,2.4,1.8c31.1,0.1,62.1,0.1,93.2,0.2c4.5,0,8.9,0,13.4,0
			c3.2,0,3.2-5,0-5c-31.1-0.1-62.1-0.1-93.2-0.2c-4.5,0-8.9,0-13.4,0c0.8,0.6,1.6,1.2,2.4,1.8c-1.9-7.8-3.8-15.7-5.8-23.5
			C78.1,129.1,73.3,130.4,74,133.5L74,133.5z"/>
	</g>
</g>
<circle class="st2" cx="95.1" cy="180.2" r="13.3"/>
<circle class="st2" cx="175.6" cy="180.4" r="13.3"/>
<g>
	<g>
		<path class="st1" d="M63.6,73.1c-2.1-8-4.3-16.1-6.4-24.1c-0.3-1.1-1.3-1.8-2.4-1.8c-8.8,0-17.6,0-26.4-0.1c-3.2,0-3.2,5,0,5
			c8.8,0,17.6,0,26.4,0.1c-0.8-0.6-1.6-1.2-2.4-1.8c2.1,8,4.3,16.1,6.4,24.1C59.6,77.5,64.4,76.2,63.6,73.1L63.6,73.1z"/>
	</g>
</g>
<g>
	<g>
		<path class="st3" d="M171,132.1c4.4,0,8.9,0,13.3,0c1.1,0,2.1-0.8,2.4-1.8c1.7-6,3.4-12,5.1-18.1c0.9-3.1-4-4.4-4.8-1.3
			c-1.7,6-3.4,12-5.1,18.1c0.8-0.6,1.6-1.2,2.4-1.8c-4.4,0-8.9,0-13.3,0C167.7,127,167.7,132,171,132.1L171,132.1z"/>
	</g>
</g>
<g>
	<g>
		<path class="st3" d="M193.8,104.2c0.3-1.1,0.6-2.2,0.9-3.3c0.3-1.3-0.4-2.8-1.7-3.1c-1.3-0.3-2.7,0.4-3.1,1.7
			c-0.3,1.1-0.6,2.2-0.9,3.3c-0.3,1.3,0.4,2.8,1.7,3.1C192.1,106.3,193.5,105.6,193.8,104.2c0.3-1.1,0.6-2.2,0.9-3.3
			c0.3-1.3-0.4-2.8-1.7-3.1c-1.3-0.3-2.7,0.4-3.1,1.7c-0.3,1.1-0.6,2.2-0.9,3.3c-0.3,1.3,0.4,2.8,1.7,3.1
			C192.1,106.3,193.5,105.6,193.8,104.2z"/>
	</g>
</g>
</svg>
