<?xml version="1.0" encoding="utf-8"?>
<!-- Generator: Adobe Illustrator 22.1.0, SVG Export Plug-In . SVG Version: 6.00 Build 0)  -->
<svg version="1.1" id="Layer_1" xmlns="http://www.w3.org/2000/svg" xmlns:xlink="http://www.w3.org/1999/xlink" x="0px" y="0px"
	 viewBox="0 0 240.6 239.9" style="enable-background:new 0 0 240.6 239.9;" xml:space="preserve">
<style type="text/css">
	.st0{display:none;fill:#F4BF73;}
	.st1{fill:#FFFFFF;}
	.st2{fill:#E55266;}
</style>
<path class="st0" d="M230,240.1H10c-5.5,0-10-4.5-10-10v-220c0-5.5,4.5-10,10-10h220c5.5,0,10,4.5,10,10v220
	C240,235.6,235.5,240.1,230,240.1z"/>
<path class="st1" d="M189.1,211.7H51.2c-6.6,0-12-5.4-12-12c0,0,8-77.6,80.9-77.6s80.9,77.6,80.9,77.6
	C201.1,206.3,195.7,211.7,189.1,211.7z"/>
<circle class="st2" cx="120.2" cy="84.1" r="53.4"/>
<circle class="st1" cx="120.2" cy="81.7" r="53.4"/>
<g>
	<g>
		<path class="st2" d="M164.8,70.8c-0.8-11.3-6.9-20.5-16.2-26.6c-2.7-1.8-5.1,2.5-2.5,4.3c7.7,5.4,13.3,12.6,13.8,22.3
			C159.9,74,164.9,74.1,164.8,70.8c-0.6-11.6-7-20.2-16.2-26.6c-0.8,1.4-1.7,2.9-2.5,4.3c7.8,5.1,13.1,12.9,13.8,22.3
			C160,74,165,74.1,164.8,70.8z"/>
	</g>
</g>
</svg>
