<?xml version="1.0" encoding="utf-8"?>
<!-- Generator: Adobe Illustrator 22.1.0, SVG Export Plug-In . SVG Version: 6.00 Build 0)  -->
<svg version="1.1" id="Layer_1" xmlns="http://www.w3.org/2000/svg" xmlns:xlink="http://www.w3.org/1999/xlink" x="0px" y="0px"
	 viewBox="0 0 240.6 239.9" style="enable-background:new 0 0 240.6 239.9;" xml:space="preserve">
<style type="text/css">
	.st0{display:none;fill:#F4BF73;}
	.st1{fill:#FFFFFF;}
	.st2{fill:#A0D1E6;}
</style>
<path class="st0" d="M230,240.1H10c-5.5,0-10-4.5-10-10v-220c0-5.5,4.5-10,10-10h220c5.5,0,10,4.5,10,10v220
	C240,235.6,235.5,240.1,230,240.1z"/>
<g>
	<polygon class="st1" points="66.2,164.5 174.4,164.5 173.7,84.2 96,84.2 94.1,73.6 66.2,73.6 	"/>
	<g>
		<path class="st1" d="M66.2,167c31.6,0,63.1,0,94.7,0c4.5,0,9,0,13.5,0c1.3,0,2.5-1.1,2.5-2.5c-0.3-26.7-0.5-53.5-0.8-80.2
			c0-1.4-1.1-2.5-2.5-2.5c-25.9,0-51.8,0-77.7,0c0.8,0.6,1.6,1.2,2.4,1.8c-0.6-3.5-1.3-7.1-1.9-10.6c-0.2-1.1-1.4-1.8-2.4-1.8
			c-9.3,0-18.6,0-27.9,0c-1.4,0-2.5,1.1-2.5,2.5c0,26.5,0,52.9,0,79.4c0,3.8,0,7.7,0,11.5c0,3.2,5,3.2,5,0c0-26.5,0-52.9,0-79.4
			c0-3.8,0-7.7,0-11.5c-0.8,0.8-1.7,1.7-2.5,2.5c9.3,0,18.6,0,27.9,0c-0.8-0.6-1.6-1.2-2.4-1.8c0.6,3.5,1.3,7.1,1.9,10.6
			c0.2,1.1,1.4,1.8,2.4,1.8c25.9,0,51.8,0,77.7,0c-0.8-0.8-1.7-1.7-2.5-2.5c0.3,26.7,0.5,53.5,0.8,80.2c0.8-0.8,1.7-1.7,2.5-2.5
			c-31.6,0-63.1,0-94.7,0c-4.5,0-9,0-13.5,0C63,162,63,167,66.2,167z"/>
	</g>
</g>
<g>
	<g>
		<path class="st2" d="M147.8,156.7c5.6,0,11.3,0,16.9,0c1,0,1.9-0.9,1.9-1.9c0-6.4,0-12.7,0-19.1c0-2.4-3.8-2.4-3.8,0
			c0,6.4,0,12.7,0,19.1c0.6-0.6,1.2-1.2,1.9-1.9c-5.6,0-11.3,0-16.9,0C145.4,153,145.3,156.7,147.8,156.7L147.8,156.7z"/>
	</g>
</g>
<g>
	<g>
		<path class="st2" d="M166.5,129c0-1.3,0-2.5,0-3.8c0-2.4-3.8-2.4-3.8,0c0,1.3,0,2.5,0,3.8C162.8,131.4,166.5,131.4,166.5,129
			L166.5,129z"/>
	</g>
</g>
<g>
	<g>
		<g>
			<path class="st2" d="M126,141.4c-8-8-16-16-24-24c-1.7-1.7-4.4,0.9-2.7,2.7c8,8,16,16,24,24C125.1,145.7,127.7,143.1,126,141.4
				L126,141.4z"/>
		</g>
	</g>
	<g>
		<g>
			<g>
				<path class="st2" d="M102,144c8-8,16-16,24-24c1.7-1.7-0.9-4.4-2.7-2.7c-8,8-16,16-24,24C97.7,143.1,100.3,145.7,102,144
					L102,144z"/>
			</g>
		</g>
		<g>
			<g>
				<path class="st2" d="M124.2,104.3c-2.1,2.1-4.2,4.2-6.4,6.4c-0.7,0.7-0.7,1.9,0,2.7c2,2,4,4,6,6c0.7,0.7,1.9,0.7,2.7,0
					c2.1-2.1,4.2-4.2,6.4-6.4c1.7-1.7-0.9-4.4-2.7-2.7c-2.1,2.1-4.2,4.2-6.4,6.4c0.9,0,1.8,0,2.7,0c-2-2-4-4-6-6c0,0.9,0,1.8,0,2.7
					c2.1-2.1,4.2-4.2,6.4-6.4C128.6,105.3,125.9,102.6,124.2,104.3L124.2,104.3z"/>
			</g>
		</g>
		<g>
			<g>
				<path class="st2" d="M123.9,119.4c1.8,1.8,3.5,3.5,5.3,5.3c0.7,0.7,1.9,0.7,2.7,0c2.1-2.1,4.2-4.2,6.4-6.4
					c1.7-1.7-0.9-4.4-2.7-2.7c-2.1,2.1-4.2,4.2-6.4,6.4c0.9,0,1.8,0,2.7,0c-1.8-1.8-3.5-3.5-5.3-5.3
					C124.8,115,122.2,117.7,123.9,119.4L123.9,119.4z"/>
			</g>
		</g>
	</g>
	<g>
		<g>
			<path class="st2" d="M89,106.8c-3.3,3.6-3.1,9.1,0.4,12.6c3.3,3.4,9.1,3.8,12.6,0.4c3.5-3.5,3-9.2-0.4-12.6
				C98.1,103.7,92.6,103.5,89,106.8c-1.8,1.6,0.9,4.3,2.7,2.7c4.7-4.3,12.2,3.1,7.6,7.6c-4.5,4.5-11.9-2.9-7.6-7.6
				C93.3,107.7,90.7,105,89,106.8z"/>
		</g>
	</g>
</g>
</svg>
