<?xml version="1.0" encoding="utf-8"?>
<!-- Generator: Adobe Illustrator 22.1.0, SVG Export Plug-In . SVG Version: 6.00 Build 0)  -->
<svg version="1.1" id="Layer_1" xmlns="http://www.w3.org/2000/svg" xmlns:xlink="http://www.w3.org/1999/xlink" x="0px" y="0px"
	 viewBox="0 0 240.6 239.9" style="enable-background:new 0 0 240.6 239.9;" xml:space="preserve">
<style type="text/css">
	.st0{display:none;fill:#F4BF73;}
	.st1{fill:#FFFFFF;}
	.st2{fill:#F4BF73;}
	.st3{font-family:'MyriadPro-Regular';}
	.st4{font-size:12px;}
</style>
<path class="st0" d="M230,240.1H10c-5.5,0-10-4.5-10-10v-220c0-5.5,4.5-10,10-10h220c5.5,0,10,4.5,10,10v220
	C240,235.6,235.5,240.1,230,240.1z"/>
<path class="st1" d="M190.7,202.4H50.2c-6.6,0-12-5.4-12-12V49.9c0-6.6,5.4-12,12-12h140.5c6.6,0,12,5.4,12,12v140.5
	C202.7,197,197.3,202.4,190.7,202.4z"/>
<g>
	<g>
		<path class="st2" d="M52.2,49.9c0,39.8,0,79.6,0,119.5c0,5.6,0,11.2,0,16.8c0,3.2,5,3.2,5,0c0-39.8,0-79.6,0-119.5
			c0-5.6,0-11.2,0-16.8C57.2,46.6,52.2,46.6,52.2,49.9L52.2,49.9z"/>
	</g>
</g>
<g>
	<g>
		<path class="st2" d="M62.1,49.9c0,35.3,0,70.6,0,105.9c0,5,0,10,0,14.9c0,3.2,5,3.2,5,0c0-35.3,0-70.6,0-105.9c0-5,0-10,0-14.9
			C67.1,46.6,62.1,46.6,62.1,49.9L62.1,49.9z"/>
	</g>
</g>
<g>
	<g>
		<path class="st2" d="M72.1,49.9c0,35.3,0,70.6,0,105.9c0,5,0,10,0,14.9c0,3.2,5,3.2,5,0c0-35.3,0-70.6,0-105.9c0-5,0-10,0-14.9
			C77.1,46.6,72.1,46.6,72.1,49.9L72.1,49.9z"/>
	</g>
</g>
<g>
	<g>
		<path class="st2" d="M87.4,49.9c0,35.3,0,70.6,0,105.9c0,5,0,10,0,14.9c0,3.2,5,3.2,5,0c0-35.3,0-70.6,0-105.9c0-5,0-10,0-14.9
			C92.4,46.6,87.4,46.6,87.4,49.9L87.4,49.9z"/>
	</g>
</g>
<g>
	<g>
		<path class="st2" d="M95.6,49.9c0,35.3,0,70.6,0,105.9c0,5,0,10,0,14.9c0,3.2,5,3.2,5,0c0-35.3,0-70.6,0-105.9c0-5,0-10,0-14.9
			C100.6,46.6,95.6,46.6,95.6,49.9L95.6,49.9z"/>
	</g>
</g>
<g>
	<g>
		<path class="st2" d="M108.3,49.9c0,35.3,0,70.6,0,105.9c0,5,0,10,0,14.9c0,3.2,5,3.2,5,0c0-35.3,0-70.6,0-105.9c0-5,0-10,0-14.9
			C113.3,46.6,108.3,46.6,108.3,49.9L108.3,49.9z"/>
	</g>
</g>
<g>
	<g>
		<path class="st2" d="M117,49.9c0,35.3,0,70.6,0,105.9c0,5,0,10,0,14.9c0,3.2,5,3.2,5,0c0-35.3,0-70.6,0-105.9c0-5,0-10,0-14.9
			C122,46.6,117,46.6,117,49.9L117,49.9z"/>
	</g>
</g>
<g>
	<g>
		<path class="st2" d="M125.9,49.9c0,35.3,0,70.6,0,105.9c0,5,0,10,0,14.9c0,3.2,5,3.2,5,0c0-35.3,0-70.6,0-105.9c0-5,0-10,0-14.9
			C130.9,46.6,125.9,46.6,125.9,49.9L125.9,49.9z"/>
	</g>
</g>
<g>
	<g>
		<path class="st2" d="M134.8,49.9c0,35.3,0,70.6,0,105.9c0,5,0,10,0,14.9c0,3.2,5,3.2,5,0c0-35.3,0-70.6,0-105.9c0-5,0-10,0-14.9
			C139.8,46.6,134.8,46.6,134.8,49.9L134.8,49.9z"/>
	</g>
</g>
<g>
	<g>
		<path class="st2" d="M142.6,49.9c0,35.3,0,70.6,0,105.9c0,5,0,10,0,14.9c0,3.2,5,3.2,5,0c0-35.3,0-70.6,0-105.9c0-5,0-10,0-14.9
			C147.6,46.6,142.6,46.6,142.6,49.9L142.6,49.9z"/>
	</g>
</g>
<g>
	<g>
		<path class="st2" d="M155.6,49.9c0,35.3,0,70.6,0,105.9c0,5,0,10,0,14.9c0,3.2,5,3.2,5,0c0-35.3,0-70.6,0-105.9c0-5,0-10,0-14.9
			C160.6,46.6,155.6,46.6,155.6,49.9L155.6,49.9z"/>
	</g>
</g>
<g>
	<g>
		<path class="st2" d="M165.6,49.9c0,35.3,0,70.6,0,105.9c0,5,0,10,0,14.9c0,3.2,5,3.2,5,0c0-35.3,0-70.6,0-105.9c0-5,0-10,0-14.9
			C170.6,46.6,165.6,46.6,165.6,49.9L165.6,49.9z"/>
	</g>
</g>
<g>
	<g>
		<path class="st2" d="M173.8,49.9c0,35.3,0,70.6,0,105.9c0,5,0,10,0,14.9c0,3.2,5,3.2,5,0c0-35.3,0-70.6,0-105.9c0-5,0-10,0-14.9
			C178.8,46.6,173.8,46.6,173.8,49.9L173.8,49.9z"/>
	</g>
</g>
<g>
	<g>
		<path class="st2" d="M183.7,49.9c0,39.8,0,79.6,0,119.5c0,5.6,0,11.2,0,16.8c0,3.2,5,3.2,5,0c0-39.8,0-79.6,0-119.5
			c0-5.6,0-11.2,0-16.8C188.7,46.6,183.7,46.6,183.7,49.9L183.7,49.9z"/>
	</g>
</g>
<text transform="matrix(1 0 0 1 61.6628 186.139)" class="st2 st3 st4">6 9   0 8   7 6 3 1 0   6 0 9</text>
</svg>
